<?xml version="1.0" ?><!DOCTYPE svg  PUBLIC '-//W3C//DTD SVG 1.1//EN'  'http://www.w3.org/Graphics/SVG/1.1/DTD/svg11.dtd'><svg id="Lager_1" style="enable-background:new 0 0 100 100;" version="1.1" viewBox="0 0 100 100" xml:space="preserve" xmlns="http://www.w3.org/2000/svg" xmlns:xlink="http://www.w3.org/1999/xlink"><g><path d="M50,86c-1.2,0-2.2-0.6-2.8-1.6L43,77.2l-0.4-0.1C28.1,73.8,18,61.4,18,47c0-4.4,0.9-8.6,2.8-12.6   l0.2-0.3l-4.3-16c-0.3-1-0.1-2,0.5-2.8c0.6-0.8,1.6-1.3,2.5-1.3c0.3,0,0.6,0,0.9,0.1l16.7,4.5l0.3-0.1c4-1.6,8.2-2.4,12.5-2.4   s8.5,0.8,12.5,2.4l0.3,0.1l16.7-4.5C79.7,14,80,14,80.3,14c1,0,1.9,0.5,2.5,1.3c0.6,0.8,0.8,1.8,0.5,2.8l-4.3,16l0.2,0.3   c1.8,4,2.8,8.2,2.8,12.6c0,14.4-10.1,26.8-24.6,30.2L57,77.2l-4.2,7.2C52.2,85.4,51.2,86,50,86z M64,36c-3.1,0-5.6,3.5-5.6,8   c0,4.5,2.4,8,5.6,8s5.6-3.5,5.6-8C69.6,39.5,67.1,36,64,36z M36,36c-3.1,0-5.6,3.5-5.6,8c0,4.5,2.4,8,5.6,8s5.6-3.5,5.6-8   C41.6,39.5,39.1,36,36,36z" style="fill:#CFE57C;"/><path d="M80.3,15c0.7,0,1.3,0.3,1.7,0.9c0.2,0.3,0.6,1,0.4,1.9l-4.2,15.7L78,34.1l0.3,0.7   C80.1,38.6,81,42.7,81,47c0,14-9.8,26-23.8,29.2l-0.9,0.2l-0.4,0.8l-4,6.8c-0.6,1-1.5,1.1-1.9,1.1s-1.3-0.1-1.9-1.1l-4-6.8   l-0.4-0.8l-0.9-0.2C28.8,72.9,19,60.9,19,47c0-4.2,0.9-8.3,2.7-12.2l0.3-0.7l-0.2-0.7l-4.2-15.7c-0.2-0.9,0.1-1.6,0.4-1.9   c0.4-0.6,1.1-0.9,1.7-0.9c0.2,0,0.4,0,0.6,0.1l16.3,4.4l0.7,0.2l0.6-0.3C41.7,17.8,45.8,17,50,17s8.3,0.8,12.1,2.4l0.6,0.3l0.7-0.2   L79.7,15C79.9,15,80.1,15,80.3,15 M64,53c3.7,0,6.6-4,6.6-9s-2.9-9-6.6-9s-6.6,4-6.6,9S60.3,53,64,53 M36,53c3.7,0,6.6-4,6.6-9   s-2.9-9-6.6-9s-6.6,4-6.6,9S32.3,53,36,53 M80.3,13c-0.4,0-0.7,0-1.1,0.1l-16.3,4.4c-4-1.6-8.3-2.5-12.9-2.5s-8.9,0.9-12.9,2.5   l-16.3-4.4C20.4,13,20,13,19.7,13c-2.7,0-4.8,2.6-4.1,5.3L19.8,34c-1.8,4-2.8,8.4-2.8,13c0,15.1,10.8,27.8,25.4,31.1l4,6.8   c0.8,1.4,2.2,2.1,3.6,2.1s2.8-0.7,3.6-2.1l4-6.8C72.2,74.8,83,62.1,83,47c0-4.6-1-9-2.8-13l4.2-15.7C85.1,15.5,83,13,80.3,13   L80.3,13z M64,51c-2.5,0-4.6-3.1-4.6-7c0-3.9,2-7,4.6-7s4.6,3.1,4.6,7C68.6,47.8,66.5,51,64,51L64,51z M36,51c-2.5,0-4.6-3.1-4.6-7   c0-3.9,2-7,4.6-7s4.6,3.1,4.6,7C40.6,47.8,38.5,51,36,51L36,51z" style="fill:#93A85A;"/></g></svg>