<?xml version="1.0" ?><!DOCTYPE svg  PUBLIC '-//W3C//DTD SVG 1.1//EN'  'http://www.w3.org/Graphics/SVG/1.1/DTD/svg11.dtd'><svg id="Lager_1" style="enable-background:new 0 0 100 100;" version="1.1" viewBox="0 0 100 100" xml:space="preserve" xmlns="http://www.w3.org/2000/svg" xmlns:xlink="http://www.w3.org/1999/xlink"><g><path d="M50,82c-4.9,0-9.5-1-13.9-3.1l-0.3-0.2l-8,2.1C27.6,81,27.5,81,27.3,81c-0.7,0-1.3-0.3-1.7-0.9   c-0.4-0.5-0.5-1.2-0.4-1.9l1.6-5.9l-0.4-0.4C21,66.2,18,58.8,18,51c0-4.4,0.9-8.6,2.8-12.6l0.2-0.3l-4.3-16c-0.3-1-0.1-2,0.5-2.8   c0.6-0.8,1.6-1.3,2.5-1.3c0.3,0,0.6,0,0.9,0.1l16.7,4.5l0.3-0.1c4-1.6,8.2-2.4,12.5-2.4s8.5,0.8,12.5,2.4l0.3,0.1l16.7-4.5   C79.7,18,80,18,80.3,18c1,0,1.9,0.5,2.5,1.3c0.6,0.8,0.8,1.8,0.5,2.8l-4.3,16l0.2,0.3c1.8,4,2.8,8.2,2.8,12.6   c0,7.8-3,15.2-8.4,20.9l-0.4,0.4l1.6,5.9c0.2,0.7,0,1.3-0.4,1.9c-0.4,0.5-1,0.9-1.7,0.9l0,0c-0.2,0-0.4,0-0.6-0.1l-8-2.1l-0.3,0.2   C59.5,81,54.9,82,50,82z M36,40c-3.1,0-5.6,3.5-5.6,8c0,0.7,0.1,1.1,0.2,1.5c0.3,0.9,1.1,1,1.3,1c0,0,0,0,0,0   c0.7,0,1.2-0.5,1.9-1.1c0.6-0.6,1.5-1.4,2.2-1.4s1.6,0.8,2.2,1.4c0.7,0.6,1.2,1.1,1.9,1.1c1.5,0,1.5-1.9,1.5-2.5   C41.6,43.5,39.1,40,36,40z M64,48c0.7,0,1.6,0.8,2.2,1.4c0.7,0.6,1.2,1.1,1.9,1.1c1.5,0,1.5-1.9,1.5-2.5c0-4.5-2.4-8-5.6-8   s-5.6,3.5-5.6,8c0,0.6,0,2.5,1.5,2.5c0.7,0,1.2-0.5,1.9-1.1C62.4,48.8,63.3,48,64,48z" style="fill:#E58888;"/><path d="M80.3,19c0.7,0,1.3,0.3,1.7,0.9c0.2,0.3,0.6,1,0.4,1.9l-4.2,15.7L78,38.2l0.3,0.7   C80.1,42.7,81,46.8,81,51c0,7.5-2.9,14.7-8.1,20.2l-0.8,0.8l0.3,1.1l1.4,5.4c0.1,0.5,0,0.8-0.2,1c-0.2,0.3-0.6,0.5-0.9,0.5   c-0.1,0-0.2,0-0.3,0l-7.6-2l-0.7-0.2L63.4,78c-4.2,2-8.7,3-13.4,3s-9.2-1-13.4-3l-0.7-0.3l-0.7,0.2l-7.6,2c-0.1,0-0.2,0-0.3,0   c-0.3,0-0.7-0.2-0.9-0.5c-0.2-0.2-0.3-0.5-0.2-1l1.4-5.4l0.3-1.1l-0.8-0.8C21.9,65.7,19,58.5,19,51c0-4.2,0.9-8.3,2.7-12.2l0.3-0.7   l-0.2-0.7l-4.2-15.7c-0.2-0.9,0.1-1.6,0.4-1.9c0.4-0.6,1.1-0.9,1.7-0.9c0.2,0,0.4,0,0.6,0.1l16.3,4.4l0.7,0.2l0.6-0.3   C41.7,21.8,45.8,21,50,21s8.3,0.8,12.1,2.4l0.6,0.3l0.7-0.2l16.3-4.4C79.9,19,80.1,19,80.3,19 M59.9,51.5c1.1,0,1.8-0.7,2.6-1.4   c0.4-0.3,1.2-1.1,1.5-1.1c0.3,0,1.2,0.8,1.5,1.1c0.8,0.7,1.5,1.4,2.6,1.4c0.9,0,2.5-0.5,2.5-3.5c0-5-2.9-9-6.6-9   c-3.7,0-6.6,4-6.6,9C57.4,51,59,51.5,59.9,51.5 M31.9,51.5c1.1,0,1.8-0.7,2.6-1.4c0.4-0.3,1.2-1.1,1.5-1.1c0.3,0,1.2,0.8,1.5,1.1   c0.8,0.7,1.5,1.4,2.6,1.4c0.9,0,2.5-0.5,2.5-3.5c0-5-2.9-9-6.6-9s-6.6,4-6.6,9C29.4,51,31,51.5,31.9,51.5 M80.3,17   c-0.4,0-0.7,0-1.1,0.1l-16.3,4.4c-4-1.6-8.3-2.5-12.9-2.5s-8.9,0.9-12.9,2.5l-16.3-4.4C20.4,17,20,17,19.7,17   c-2.7,0-4.8,2.6-4.1,5.3L19.8,38C18,42,17,46.4,17,51c0,8.3,3.3,15.9,8.7,21.6L24.2,78c-0.6,2.1,1,4,3,4c0.3,0,0.6,0,0.8-0.1l7.6-2   C40,81.9,44.9,83,50,83s10-1.1,14.3-3.1l7.6,2c0.3,0.1,0.6,0.1,0.8,0.1c2,0,3.6-1.9,3-4l-1.4-5.4C79.7,66.9,83,59.3,83,51   c0-4.6-1-9-2.8-13l4.2-15.7C85.1,19.6,83,17,80.3,17L80.3,17z M59.9,49.5c-0.3,0-0.5-0.4-0.5-1.5c0-3.9,2-7,4.6-7   c2.5,0,4.6,3.1,4.6,7c0,1.1-0.2,1.5-0.5,1.5c-0.7,0-2.3-2.5-4.1-2.5C62.2,47,60.6,49.5,59.9,49.5L59.9,49.5z M31.9,49.5   c-0.3,0-0.5-0.4-0.5-1.5c0-3.9,2-7,4.6-7s4.6,3.1,4.6,7c0,1.1-0.2,1.5-0.5,1.5c-0.7,0-2.3-2.5-4.1-2.5C34.2,47,32.6,49.5,31.9,49.5   L31.9,49.5z" style="fill:#A86262;"/></g></svg>