<?xml version="1.0" ?><!DOCTYPE svg  PUBLIC '-//W3C//DTD SVG 1.1//EN'  'http://www.w3.org/Graphics/SVG/1.1/DTD/svg11.dtd'><svg id="Lager_1" style="enable-background:new 0 0 100 100;" version="1.1" viewBox="0 0 100 100" xml:space="preserve" xmlns="http://www.w3.org/2000/svg" xmlns:xlink="http://www.w3.org/1999/xlink"><g><path d="M50,82c-17.6,0-32-13.9-32-31c0-4.4,0.9-8.6,2.8-12.6l0.2-0.3l-4.3-16c-0.3-1-0.1-2,0.5-2.8   c0.6-0.8,1.6-1.3,2.5-1.3c0.3,0,0.6,0,0.9,0.1l16.7,4.5l0.3-0.1c4-1.6,8.2-2.4,12.5-2.4s8.5,0.8,12.5,2.4l0.3,0.1l16.7-4.5   C79.7,18,80,18,80.3,18c1,0,1.9,0.5,2.5,1.3c0.6,0.8,0.8,1.8,0.5,2.8l-4.3,16l0.2,0.3c1.8,4,2.8,8.2,2.8,12.6   C82,68.1,67.6,82,50,82z M64,40c-3.1,0-5.6,3.5-5.6,8c0,4.5,2.4,8,5.6,8s5.6-3.5,5.6-8C69.6,43.5,67.1,40,64,40z M36,40   c-3.1,0-5.6,3.5-5.6,8c0,4.5,2.4,8,5.6,8s5.6-3.5,5.6-8C41.6,43.5,39.1,40,36,40z" style="fill:#D8B495;"/><path d="M80.3,19c0.7,0,1.3,0.3,1.7,0.9c0.2,0.3,0.6,1,0.4,1.9l-4.2,15.7L78,38.2l0.3,0.7   C80.1,42.7,81,46.8,81,51c0,16.5-13.9,30-31,30S19,67.5,19,51c0-4.2,0.9-8.3,2.7-12.2l0.3-0.7l-0.2-0.7l-4.2-15.7   c-0.2-0.9,0.1-1.6,0.4-1.9c0.4-0.6,1.1-0.9,1.7-0.9c0.2,0,0.4,0,0.6,0.1l16.3,4.4l0.7,0.2l0.6-0.3C41.7,21.8,45.8,21,50,21   s8.3,0.8,12.1,2.4l0.6,0.3l0.7-0.2l16.3-4.4C79.9,19,80.1,19,80.3,19 M64,57c3.7,0,6.6-4,6.6-9s-2.9-9-6.6-9c-3.7,0-6.6,4-6.6,9   S60.3,57,64,57 M36,57c3.7,0,6.6-4,6.6-9s-2.9-9-6.6-9s-6.6,4-6.6,9S32.3,57,36,57 M80.3,17c-0.4,0-0.7,0-1.1,0.1l-16.3,4.4   c-4-1.6-8.3-2.5-12.9-2.5s-8.9,0.9-12.9,2.5l-16.3-4.4C20.4,17,20,17,19.7,17c-2.7,0-4.8,2.6-4.1,5.3L19.8,38C18,42,17,46.4,17,51   c0,17.7,14.8,32,33,32s33-14.3,33-32c0-4.6-1-9-2.8-13l4.2-15.7C85.1,19.6,83,17,80.3,17L80.3,17z M64,55c-2.5,0-4.6-3.1-4.6-7   c0-3.9,2-7,4.6-7c2.5,0,4.6,3.1,4.6,7C68.6,51.9,66.5,55,64,55L64,55z M36,55c-2.5,0-4.6-3.1-4.6-7c0-3.9,2-7,4.6-7s4.6,3.1,4.6,7   C40.6,51.9,38.5,55,36,55L36,55z" style="fill:#A98461;"/></g></svg>